<svg width="150" height="150" viewBox="0 0 150 150" fill="none" xmlns="http://www.w3.org/2000/svg">
<path d="M119.88 78.345C119.37 73.47 118.53 68.715 116.085 64.395C112.32 57.75 106.155 54.555 99.075 52.755C91.32 50.775 83.4 50.385 75.435 50.4H73.56C65.16 50.46 56.805 50.895 48.705 53.37C39.615 56.13 33.45 61.785 31.215 71.205C28.755 81.615 29.64 91.74 34.11 101.52C38.685 111.555 45.075 120.285 52.95 127.965C57.45 132.345 62.355 136.23 68.115 138.915C72.3 140.865 76.515 141.345 80.79 139.335C82.875 138.345 84.99 137.385 86.895 136.11C98.025 128.685 106.47 118.8 112.995 107.205C118.005 98.265 120.975 88.8 119.88 78.345ZM39.555 84.3C39.45 84.78 39.345 85.23 39.21 85.695C39.135 85.965 38.79 86.295 38.535 86.31C38.325 86.325 37.965 85.98 37.875 85.725C37.185 83.895 37.215 82.065 37.935 80.25C38.04 79.98 38.46 79.575 38.595 79.635C38.895 79.74 39.27 80.055 39.345 80.34C39.465 80.76 39.555 81.18 39.63 81.615C39.765 82.32 39.735 83.535 39.555 84.3ZM40.815 67.92C40.53 66.15 41.1 64.545 42.24 63.24C42.705 62.715 43.74 62.205 44.265 62.385C44.58 62.49 44.79 62.88 45.015 63.39C45.3 64.035 45.15 65.34 44.64 66.315C44.19 67.185 43.74 68.01 43.125 68.73C42.195 69.855 41.04 69.375 40.815 67.92ZM45.735 102.675C45.315 102.75 44.7 102.525 44.355 102.225C43.35 101.325 42.72 100.245 42.33 98.91C42.03 97.845 42.045 96.69 42.195 96.39C42.285 96.21 42.42 96.015 42.57 95.925C42.84 95.775 43.5 96.075 43.815 96.36C45.345 97.695 46.08 99.45 46.185 101.46C46.215 101.865 45.96 102.63 45.735 102.675ZM51.69 84.66C51.525 85.215 51.315 85.74 51.045 86.22C50.46 87.27 49.455 87.195 48.735 86.22C47.535 84.615 47.58 81.255 48.81 79.68C49.575 78.69 50.685 78.675 51.24 79.815C51.48 80.31 51.645 80.835 51.795 81.405C52.02 82.305 51.975 83.775 51.69 84.66ZM90.9 61.305C91.605 60.075 92.595 59.895 93.585 60.93C94.44 61.83 94.905 62.88 95.175 64.035C95.445 65.115 95.37 66.6 95.19 67.32C95.085 67.77 94.95 68.19 94.77 68.595C94.185 69.84 93.105 69.945 92.085 68.985C90.405 67.395 89.775 63.285 90.9 61.305ZM55.065 63.885C55.41 62.97 55.77 62.04 56.28 61.245C57.285 59.67 58.785 59.97 59.355 61.74C60.135 64.17 59.76 66.525 58.245 68.565C57.87 69.09 56.955 69.555 56.355 69.48C55.86 69.42 55.32 68.595 55.035 68.01C54.885 67.695 54.81 67.335 54.765 66.975C54.675 66.39 54.555 65.88 54.48 65.835C54.42 65.79 54.675 64.905 55.065 63.885ZM56.88 118.56C56.655 118.83 56.295 118.83 55.815 118.5C54.18 117.405 53.235 115.815 52.98 113.88C52.86 112.965 53.385 112.56 54.195 113.085C55.2 113.745 55.935 114.6 56.445 115.545C56.94 116.535 57.27 118.035 56.88 118.56ZM60.45 102.27C60.195 102.975 59.82 103.545 58.995 103.875C58.11 104.235 56.775 103.08 56.415 101.265C56.085 99.63 55.995 97.845 56.325 96.225C56.64 94.65 58.215 94.425 59.085 95.805C59.595 96.615 59.955 97.53 60.3 98.46C60.66 99.525 60.825 101.235 60.45 102.27ZM63.645 84.81C63.33 83.76 63.315 82.035 63.615 80.97C63.825 80.235 64.05 79.545 64.38 78.915C65.16 77.43 66.48 77.46 67.47 78.81C68.925 80.805 68.97 85.035 67.545 87.06C66.615 88.38 65.31 88.515 64.545 87.12C64.155 86.415 63.885 85.62 63.645 84.81ZM67.62 130.455C67.365 130.59 67.14 130.68 67.035 130.605C66.18 129.855 65.43 128.97 64.725 128.07C64.68 128.025 65.31 127.155 65.64 127.14C66.225 127.11 66.93 127.62 67.455 128.34C68.115 129.225 67.935 130.305 67.62 130.455ZM69.405 117.72C69.03 118.62 68.505 119.145 67.875 119.205C66.885 119.28 65.685 117.96 65.565 116.295C65.49 115.14 65.625 113.895 66.015 112.815C66.42 111.675 67.71 111.51 68.4 112.53C68.745 113.01 69 113.565 69.24 114.135C69.6 115.05 69.84 116.7 69.405 117.72ZM76.635 130.125C76.44 130.59 75.87 131.145 75.465 131.16C75.075 131.175 74.49 130.605 74.265 130.17C74.1 129.855 74.01 129.51 73.935 129.165C73.815 128.58 73.71 127.23 74.1 126.27C74.4 125.52 74.865 125.04 75.39 125.025C76.29 124.995 77.025 126.27 77.025 128.025C77.04 128.73 76.935 129.495 76.635 130.125ZM77.115 101.31C76.95 101.91 76.74 102.51 76.47 103.05C75.75 104.475 74.415 104.46 73.53 103.14C72.345 101.385 72.33 97.605 73.5 95.835C74.43 94.41 75.75 94.38 76.5 95.895C76.77 96.45 76.965 97.05 77.13 97.68C77.385 98.685 77.385 100.32 77.115 101.31ZM77.145 67.02C76.95 67.65 76.74 68.28 76.425 68.865C75.675 70.275 74.37 70.2 73.47 68.88C72.15 66.945 72.12 63.15 73.41 61.17C74.4 59.64 75.81 59.64 76.62 61.305C76.905 61.89 77.085 62.52 77.25 63.195C77.505 64.245 77.475 65.97 77.145 67.02ZM80.79 117.765C80.625 117.45 80.535 117.075 80.49 116.64C80.4 115.995 80.55 114.81 80.865 114.015C81.045 113.535 81.27 113.04 81.57 112.605C82.365 111.435 83.73 111.69 84.255 113.04C84.945 114.78 84.855 116.565 83.79 118.14C83.46 118.635 82.68 119.235 82.215 119.145C81.66 119.04 81.105 118.335 80.79 117.765ZM82.98 130.605C82.635 130.59 82.035 130.125 82.005 129.81C81.96 129.225 82.53 128.4 83.31 127.815C84.18 127.14 85.26 127.275 85.425 127.545C85.53 127.71 85.59 127.905 85.59 128.085C85.545 129.135 84.015 130.635 82.98 130.605ZM86.625 84.885C86.4 85.62 86.175 86.325 85.83 86.97C85.02 88.53 83.625 88.47 82.68 87.03C81.3 84.915 81.315 80.94 82.725 78.885C83.67 77.49 85.005 77.4 85.815 78.885C86.19 79.56 86.415 80.31 86.64 81.06C86.94 82.11 86.94 83.835 86.625 84.885ZM90.06 102.66C89.22 100.35 89.535 98.085 90.96 96.09C91.335 95.55 92.265 94.98 92.805 95.085C93.345 95.19 93.84 96.075 94.155 96.72C94.29 96.99 94.335 97.305 94.38 97.62C94.44 98.13 94.545 98.58 94.635 98.625C94.71 98.685 94.455 99.54 94.05 100.575C93.675 101.475 93.3 102.39 92.76 103.185C91.875 104.46 90.615 104.175 90.06 102.66ZM94.155 118.53C93.705 118.8 93.36 118.83 93.15 118.59C92.76 118.125 93.09 116.64 93.63 115.665C94.125 114.705 94.86 113.835 95.895 113.175C96.165 113.01 96.66 112.98 96.93 113.115C97.125 113.205 97.245 113.715 97.185 114.015C96.78 115.905 95.835 117.48 94.155 118.53ZM102.15 84.45C102.015 85.005 101.865 85.515 101.64 85.995C101.07 87.21 99.945 87.255 99.135 86.22C97.98 84.735 97.935 81.12 99.075 79.65C99.81 78.705 100.815 78.645 101.4 79.71C101.67 80.19 101.865 80.715 102.03 81.255C102.33 82.14 102.375 83.58 102.15 84.45ZM107.91 98.97C107.49 100.29 106.86 101.4 105.825 102.285C105.51 102.555 104.82 102.855 104.61 102.69C104.25 102.435 103.95 101.805 104.01 101.385C104.235 99.435 104.91 97.665 106.425 96.345C106.74 96.075 107.385 95.805 107.655 95.955C107.835 96.045 107.97 96.225 108.075 96.435C108.24 96.765 108.24 97.92 107.91 98.97ZM108.72 68.325C108.54 68.7 108.345 69.045 108.06 69.12C107.535 69.285 106.605 68.82 106.125 68.34C104.91 67.125 104.445 65.55 104.565 63.87C104.61 63.3 105.03 62.535 105.495 62.295C105.87 62.115 106.71 62.46 107.115 62.835C107.91 63.54 108.405 64.41 108.72 65.4C109.08 66.45 108.96 67.785 108.72 68.325ZM112.065 85.995C111.84 86.175 111.48 86.16 111.27 85.965C111.12 85.83 111 85.695 110.955 85.53C110.835 85.095 110.76 84.66 110.685 84.24C110.55 83.52 110.55 82.335 110.67 81.615C110.73 81.165 110.82 80.73 110.94 80.31C110.985 80.16 111.105 80.025 111.255 79.89C111.48 79.695 111.825 79.68 112.035 79.845C112.185 79.965 112.305 80.1 112.305 80.22C112.38 81.99 112.425 83.79 112.395 85.56C112.365 85.725 112.215 85.86 112.065 85.995ZM52.515 37.125C54.045 38.34 55.665 39.435 57.33 40.605C58.23 41.235 58.185 41.88 57.21 42.045C56.61 42.15 56.025 42.27 55.47 42.465C55.05 42.615 54.66 42.855 54.27 43.14C53.655 43.575 53.61 44.355 54.195 44.865C54.57 45.195 54.945 45.465 55.365 45.57C58.83 46.35 62.31 47.13 65.835 47.475C69.045 47.805 72.285 47.67 75.51 47.58C79.875 47.445 84.27 47.355 88.605 46.875C91.2 46.59 93.72 45.645 96.225 44.85C96.525 44.76 96.765 44.49 97.005 44.205C97.365 43.755 97.275 43.095 96.84 42.765C96.57 42.54 96.27 42.36 95.94 42.24C95.4 42.06 94.83 41.925 94.23 41.805C93.27 41.625 93.24 40.98 94.185 40.38C95.04 39.825 95.835 39.3 96.555 38.685C98.55 36.975 100.575 35.235 102.3 33.27C103.515 31.89 102.825 30.735 100.95 30.6C100.575 30.57 100.155 30.57 99.81 30.675C97.5 31.335 95.13 31.845 92.925 32.73C90.765 33.585 88.695 34.605 86.535 35.655C85.53 36.135 84.87 36.195 85.02 35.805C85.125 35.55 85.215 35.325 85.29 35.07C85.86 32.895 86.52 30.72 86.88 28.5C87.015 27.705 86.58 26.31 85.995 26.04C85.38 25.755 84.075 26.235 83.46 26.805C82.05 28.11 80.865 29.625 79.65 31.125C79.305 31.545 79.005 31.995 78.72 32.445C78.24 33.21 77.865 32.925 77.925 31.83C78.285 25.02 79.8 18.57 83.535 12.765C84.135 11.835 84 10.5 82.995 10.02C81.81 9.45001 80.535 9.25501 79.155 9.43501C76.575 9.75001 75.63 11.85 75.105 13.83C74.085 17.625 73.335 21.495 72.735 25.38C72.435 27.36 72.42 29.385 72.36 31.53C72.33 32.64 71.85 32.835 71.31 31.98C70.965 31.44 70.635 30.945 70.245 30.51C68.925 28.995 67.575 27.465 66.015 26.22C64.695 25.185 63.525 25.845 63.42 27.48C63.375 28.485 63.405 29.535 63.63 30.48C63.9 31.65 64.26 32.805 64.62 33.975C64.95 35.025 64.38 35.505 63.39 35.055C61.38 34.11 59.4 33.15 57.345 32.37C55.185 31.575 52.92 31.05 50.67 30.615C49.95 30.48 48.735 30.855 48.42 31.395C48.135 31.89 48.495 33.105 48.975 33.675C50.055 34.95 51.24 36.105 52.515 37.125Z" fill="#EEBBBB"/>
</svg>
